name Run_40002_IK.mot
datacolumns 164
datarows 4
range 2.22 2.25
endheader
time	         pelvis_tilt	         pelvis_list	     pelvis_rotation	           pelvis_tx	           pelvis_ty	           pelvis_tz	       hip_flexion_r	     hip_adduction_r	      hip_rotation_r	        knee_angle_r	       ankle_angle_r	       hip_flexion_l	     hip_adduction_l	      hip_rotation_l	        knee_angle_l	       ankle_angle_l	    lumbar_extension	      lumbar_bending	     lumbar_rotation	          arm_flex_r	           arm_add_r	           arm_rot_r	        elbow_flex_r	           pro_sup_r	          arm_flex_l	           arm_add_l	           arm_rot_l	        elbow_flex_l	           pro_sup_l	    subtalar_angle_r	         mtp_angle_r	    subtalar_angle_l	         mtp_angle_l	        wrist_flex_r	         wrist_dev_r	        wrist_flex_l	         wrist_dev_l	             LASI_tx	             LASI_ty	             LASI_tz	             RASI_tx	             RASI_ty	             RASI_tz	             LPSI_tx	             LPSI_ty	             LPSI_tz	             RPSI_tx	             RPSI_ty	             RPSI_tz	             RTH1_tx	             RTH1_ty	             RTH1_tz	             RTH2_tx	             RTH2_ty	             RTH2_tz	             RTH3_tx	             RTH3_ty	             RTH3_tz	             LTH1_tx	             LTH1_ty	             LTH1_tz	             LTH2_tx	             LTH2_ty	             LTH2_tz	             LTH3_tx	             LTH3_ty	             LTH3_tz	             RTB1_tx	             RTB1_ty	             RTB1_tz	             RTB2_tx	             RTB2_ty	             RTB2_tz	             RTB3_tx	             RTB3_ty	             RTB3_tz	             LTB1_tx	             LTB1_ty	             LTB1_tz	             LTB2_tx	             LTB2_ty	             LTB2_tz	             LTB3_tx	             LTB3_ty	             LTB3_tz	             RCAL_tx	             RCAL_ty	             RCAL_tz	             RTOE_tx	             RTOE_ty	             RTOE_tz	             RMT5_tx	             RMT5_ty	             RMT5_tz	             LCAL_tx	             LCAL_ty	             LCAL_tz	             LTOE_tx	             LTOE_ty	             LTOE_tz	             LMT5_tx	             LMT5_ty	             LMT5_tz	             LACR_tx	             LACR_ty	             LACR_tz	             RACR_tx	             RACR_ty	             RACR_tz	             CLAV_tx	             CLAV_ty	             CLAV_tz	               C7_tx	               C7_ty	               C7_tz	             RUA1_tx	             RUA1_ty	             RUA1_tz	             RUA2_tx	             RUA2_ty	             RUA2_tz	             RUA3_tx	             RUA3_ty	             RUA3_tz	             RLEL_tx	             RLEL_ty	             RLEL_tz	             RMEL_tx	             RMEL_ty	             RMEL_tz	             LUA1_tx	             LUA1_ty	             LUA1_tz	             LUA2_tx	             LUA2_ty	             LUA2_tz	             LUA3_tx	             LUA3_ty	             LUA3_tz	             LLEL_tx	             LLEL_ty	             LLEL_tz	             LMEL_tx	             LMEL_ty	             LMEL_tz	      RFAsuperior_tx	      RFAsuperior_ty	      RFAsuperior_tz	        RFAradius_tx	        RFAradius_ty	        RFAradius_tz	          RFAulna_tx	          RFAulna_ty	          RFAulna_tz	      LFAsuperior_tx	      LFAsuperior_ty	      LFAsuperior_tz	        LFAradius_tx	        LFAradius_ty	        LFAradius_tz	          LFAulna_tx	          LFAulna_ty	          LFAulna_tz	
2.22	        -11.29262319	         -2.52879882	         -4.81043938	          0.98435782	          1.03132567	         -0.35049646	         33.74565492	          7.34467059	          3.72291799	         -6.78997108	          2.02827069	         -6.24345318	          4.49082145	          3.54370993	        -55.33568525	        -18.64757443	          1.60442872	          5.55170358	         -8.95855549	        -48.34146367	        -20.30334733	        -18.69997509	        110.60050935	        100.93851434	        -29.96608667	        -12.89363754	         -6.40911741	        132.19966355	        102.11554922	          0.00000000	          0.00000000	          0.00000000	          0.00000000	          0.00000000	          0.00000000	          0.00000000	          0.00000000	          1.00953343	          1.06506753	         -0.50886563	          0.98109158	          1.07860668	         -0.22143889	          0.85876938	          1.12129790	         -0.42530871	          0.83487256	          1.12363194	         -0.31360298	          0.92190435	          0.96148388	         -0.16461932	          0.92753799	          0.80341528	         -0.19199819	          1.02328780	          0.67711801	         -0.19930774	          0.94845919	          0.91611184	         -0.51327394	          0.81796724	          0.80340682	         -0.48001416	          0.81737698	          0.65865542	         -0.46377929	          1.16245972	          0.45892931	         -0.27215039	          1.09468780	          0.39043913	         -0.21082638	          1.18448107	          0.27263407	         -0.29621180	          0.69274310	          0.46549512	         -0.40259197	          0.56534132	          0.50510817	         -0.46642369	          0.48033652	          0.41171123	         -0.42005838	          1.11027093	          0.10626773	         -0.30225011	          1.33386783	          0.18532744	         -0.34930461	          1.31742744	          0.12260206	         -0.26115055	          0.33645081	          0.49257528	         -0.42677966	          0.32458040	          0.26311991	         -0.36816049	          0.27679717	          0.28762610	         -0.46661193	          0.99335779	          1.55960421	         -0.49992253	          0.94789263	          1.53886775	         -0.18633299	          1.02624034	          1.50597045	         -0.30028674	          0.91530640	          1.57246386	         -0.35629249	          0.80603002	          1.49179044	         -0.16386412	          0.81606584	          1.43013390	         -0.11183536	          0.71556720	          1.39557799	         -0.09815085	          0.65834137	          1.34998518	         -0.08351883	          0.67557454	          1.31375971	         -0.16574633	          0.90942634	          1.46571362	         -0.57508822	          0.94351690	          1.39310998	         -0.59852036	          0.87732562	          1.33040044	         -0.64080585	          0.86629466	          1.26237079	         -0.66282691	          0.82775887	          1.24040249	         -0.57982460	          0.72902945	          1.27087625	         -0.05721387	          0.88690870	          1.18955907	         -0.09771114	          0.83899499	          1.14929722	         -0.06903333	          0.93773925	          1.23137495	         -0.63170157	          1.06310412	          1.28480396	         -0.50189699	          1.08257207	          1.21799369	         -0.52380883	
2.23	        -11.09719268	         -2.85433722	         -4.98566730	          0.98354550	          1.02598092	         -0.35035970	         33.19846181	          7.89180013	          2.84445737	         -7.18693725	          2.10470529	         -3.85068024	          3.63300686	          2.05041780	        -62.19993774	        -17.94214433	          1.13797043	          6.13031339	         -8.44107352	        -47.11491135	        -20.57256168	        -18.32436863	        110.65584079	        101.29022716	        -30.19431378	        -12.87433456	         -5.99579655	        130.33606138	        103.11521821	          0.00000000	          0.00000000	          0.00000000	          0.00000000	          0.00000000	          0.00000000	          0.00000000	          0.00000000	          1.00883055	          1.05924518	         -0.50954096	          0.97957498	          1.07428400	         -0.22152835	          0.85803436	          1.11546509	         -0.42614119	          0.83375038	          1.11837749	         -0.31423610	          0.91884713	          0.95514538	         -0.16461325	          0.92448878	          0.79700438	         -0.19237177	          1.02058799	          0.67071414	         -0.20068188	          0.95010194	          0.91121871	         -0.51347445	          0.82376531	          0.79392844	         -0.47986515	          0.82827901	          0.64965339	         -0.46596912	          1.15722881	          0.45107276	         -0.27373497	          1.08853366	          0.38257146	         -0.21337136	          1.17746416	          0.26456474	         -0.29876038	          0.70512992	          0.45975038	         -0.40553603	          0.58051196	          0.50925034	         -0.46724570	          0.48932391	          0.42113009	         -0.42288694	          1.10139116	          0.09903002	         -0.30688728	          1.32649457	          0.17752182	         -0.35041949	          1.30816799	          0.11158002	         -0.26391804	          0.35161149	          0.51248270	         -0.42507705	          0.32484824	          0.28168766	         -0.37777801	          0.27870602	          0.31436924	         -0.47454379	          0.99286273	          1.55453579	         -0.49900391	          0.94890301	          1.53199514	         -0.18529991	          1.02660840	          1.49994568	         -0.29963405	          0.91537525	          1.56718636	         -0.35512191	          0.80728428	          1.48349820	         -0.16080196	          0.81875455	          1.42111966	         -0.10972016	          0.71937060	          1.38466898	         -0.09451728	          0.66284743	          1.33841394	         -0.07951599	          0.67967443	          1.30278969	         -0.16226789	          0.90782828	          1.46175764	         -0.57382754	          0.94158727	          1.38905858	         -0.59783107	          0.87500765	          1.32720407	         -0.64023708	          0.86361862	          1.25920639	         -0.66200979	          0.82436933	          1.23744195	         -0.57971660	          0.73524632	          1.26064943	         -0.05447865	          0.89377551	          1.18195112	         -0.09739436	          0.84701322	          1.14093073	         -0.06784526	          0.93386710	          1.22484744	         -0.63193272	          1.06156950	          1.27068050	         -0.50080620	          1.07855180	          1.20399415	         -0.52534238	
2.24	        -11.01884415	         -2.96781596	         -5.06973356	          0.98237388	          1.01949383	         -0.35048203	         33.02950897	          8.08421415	          1.44029896	         -8.81899392	          1.49495201	         -1.18371972	          2.93508057	          0.91726563	        -68.84285616	        -16.84072689	          0.83207098	          6.46599747	         -7.93913405	        -45.68684127	        -20.92687486	        -17.80676658	        110.51618884	        101.47873606	        -30.45175451	        -12.86835510	         -5.58478810	        128.28527176	        104.29373720	          0.00000000	          0.00000000	          0.00000000	          0.00000000	          0.00000000	          0.00000000	          0.00000000	          0.00000000	          1.00780835	          1.05283156	         -0.50986179	          0.97801120	          1.06821303	         -0.22171310	          0.85697997	          1.10904093	         -0.42661920	          0.83266218	          1.11161569	         -0.31443658	          0.91535821	          0.94772861	         -0.16476938	          0.92157557	          0.78950274	         -0.19477889	          1.01789232	          0.66384318	         -0.20310952	          0.95145541	          0.90589719	         -0.51405010	          0.82941684	          0.78396315	         -0.47936146	          0.83996117	          0.64011516	         -0.46867493	          1.15061743	          0.44075831	         -0.27440471	          1.07956802	          0.37362863	         -0.21512169	          1.16670162	          0.25391384	         -0.29988480	          0.71940088	          0.45356170	         -0.40918599	          0.59793455	          0.51182472	         -0.46857186	          0.50148244	          0.42921326	         -0.42514801	          1.08597905	          0.09299647	         -0.31011501	          1.31394581	          0.16268424	         -0.34972277	          1.29139910	          0.09525608	         -0.26472173	          0.36950191	          0.52948347	         -0.42234126	          0.33008670	          0.29827988	         -0.38668306	          0.28733210	          0.33824023	         -0.48227325	          0.99195913	          1.54824556	         -0.49832870	          0.94996745	          1.52405864	         -0.18412925	          1.02681399	          1.49300480	         -0.29917045	          0.91536016	          1.56098073	         -0.35418006	          0.80865919	          1.47367932	         -0.15723145	          0.82199681	          1.41066129	         -0.10708438	          0.72381905	          1.37215968	         -0.09011210	          0.66818733	          1.32514456	         -0.07463415	          0.68435001	          1.29022167	         -0.15782985	          0.90576966	          1.45655134	         -0.57264976	          0.93920697	          1.38362138	         -0.59707183	          0.87204091	          1.32271660	         -0.63944869	          0.86005938	          1.25496222	         -0.66116694	          0.82035036	          1.23337439	         -0.57963021	          0.74222546	          1.24864925	         -0.05099400	          0.90143989	          1.17291270	         -0.09669136	          0.85597205	          1.13107948	         -0.06630318	          0.92897155	          1.21715865	         -0.63233622	          1.05903320	          1.25468294	         -0.50000599	          1.07337419	          1.18834390	         -0.52749644	
2.25	        -11.03467498	         -2.95752722	         -5.09926930	          0.98110048	          1.01196464	         -0.35092314	         33.21760665	          7.98898731	         -0.63695744	        -11.70708437	          0.01682368	          1.67331749	          2.29922465	         -0.01134681	        -75.17994941	        -15.02614745	          0.68040096	          6.69373706	         -7.36226074	        -44.16633718	        -21.34601657	        -17.24401240	        110.20796587	        101.52394982	        -30.69826343	        -12.88488507	         -5.06324319	        125.98124507	        105.54017738	          0.00000000	          0.00000000	          0.00000000	          0.00000000	          0.00000000	          0.00000000	          0.00000000	          0.00000000	          1.00679034	          1.04570505	         -0.50991875	          0.97664516	          1.06034810	         -0.22236110	          0.85592976	          1.10190385	         -0.42683329	          0.83154140	          1.10342611	         -0.31452469	          0.91221321	          0.93934591	         -0.16601473	          0.91841646	          0.78127351	         -0.19861230	          1.01480742	          0.65603705	         -0.20558134	          0.95256395	          0.90003061	         -0.51488546	          0.83514462	          0.77353032	         -0.47858486	          0.85234703	          0.63007484	         -0.47177346	          1.14297386	          0.42857361	         -0.27421894	          1.06819280	          0.36396957	         -0.21651020	          1.15235330	          0.24140562	         -0.30067253	          0.73546871	          0.44685107	         -0.41398003	          0.61704825	          0.51350362	         -0.47011647	          0.51643611	          0.43580560	         -0.42770126	          1.06405149	          0.08996522	         -0.31360228	          1.29604868	          0.13983929	         -0.34800072	          1.26678469	          0.07608387	         -0.26362965	          0.38883733	          0.54353248	         -0.41901265	          0.34108552	          0.31226938	         -0.39509752	          0.30164342	          0.35836816	         -0.48947183	          0.99057996	          1.54092275	         -0.49769124	          0.95118644	          1.51515763	         -0.18268202	          1.02691665	          1.48522154	         -0.29876167	          0.91520204	          1.55375595	         -0.35323457	          0.81033877	          1.46240893	         -0.15310068	          0.82587428	          1.39893431	         -0.10390669	          0.72896262	          1.35822915	         -0.08502664	          0.67448632	          1.31035548	         -0.06900026	          0.68966574	          1.27622870	         -0.15244258	          0.90306247	          1.45014199	         -0.57130124	          0.93626622	          1.37691956	         -0.59627725	          0.86848028	          1.31698109	         -0.63836275	          0.85562831	          1.24975475	         -0.66042501	          0.81591225	          1.22829324	         -0.57961749	          0.75009985	          1.23503315	         -0.04685681	          0.90990313	          1.16242912	         -0.09568015	          0.86583933	          1.11975101	         -0.06447957	          0.92308952	          1.20837148	         -0.63299283	          1.05531003	          1.23683554	         -0.49964045	          1.06690445	          1.17113083	         -0.53012552	
